#!OML:ASF H:\MichaelJackson\Top Level 1\Subject 1\Session 1\male.ASF
:FULLY-SPECIFIED
:DEGREES
906
root 27.2899 16.7753 5.62056 -172.323 -5.50586 -173.079
lowerback 5.38216 0.668563 7.08242
upperback 1.88899 1.03599 2.79462
thorax -0.977763 0.41392 -1.14498
lowerneck -8.00926 -2.89334 1.00511
upperneck 10.8176 -4.25169 0.669657
head 4.54876 -2.06519 -0.226278
rclavicle 4.07509e-015 -2.5842e-014
rhumerus -230.583 139.513 -280.27
rradius 45.8906
rwrist 8.90667
rhand 31.3125 -23.8417
rfingers 7.12502
rthumb 54.8829 -402.065
lclavicle 4.07509e-015 -2.5842e-014
lhumerus -40.7231 -27.3232 92.1897
lradius 96.58
lwrist -7.72399
lhand -7.99197 25.2269
lfingers 7.12502
lthumb 17.9166 54.4216
rfemur -20.6727 -8.86189 31.4688
rtibia 37.9395
rfoot -20.1113 0.857229
rtoes -5.2344
lfemur -52.1777 5.19556 -14.0391
ltibia 58.6294
lfoot 15.413 -6.34601
ltoes 32.9914
907
root 27.2928 16.8069 5.71027 -172.305 -5.21628 -173.362
lowerback 5.43255 0.764383 6.86243
upperback 1.94113 1.16277 2.64391
thorax -0.945595 0.483759 -1.18623
lowerneck -7.99363 -2.92599 1.03934
upperneck 10.8012 -4.30195 0.689406
head 4.54079 -2.0876 -0.228392
rclavicle 8.94531e-016 -3.89618e-014
rhumerus -231.077 137.093 -281.064
rradius 47.0848
rwrist 7.30286
rhand 32.9742 -24.0914
rfingers 7.12502
rthumb 56.3592 -401.199
lclavicle 8.94531e-016 -3.89618e-014
lhumerus -41.11 -27.0286 92.2301
lradius 93.7901
lwrist -7.06518
lhand -6.47357 25.7827
lfingers 7.12502
lthumb 19.3771 54.8373
rfemur -20.949 -8.79361 31.1527
rtibia 37.7598
rfoot -19.5333 1.25829
rtoes -5.04421
lfemur -52.2732 5.08101 -14.1128
ltibia 59.9434
lfoot 16.3496 -6.37801
ltoes 33.4552
908
root 27.296 16.8385 5.79931 -172.291 -4.92067 -173.659
lowerback 5.47818 0.857728 6.62536
upperback 1.98847 1.28556 2.48393
thorax -0.916518 0.5516 -1.22716
lowerneck -7.99007 -2.95164 1.06806
upperneck 10.8217 -4.34699 0.729869
head 4.54679 -2.10661 -0.223634
rclavicle 2.79292e-014 2.82274e-014
rhumerus -231.553 134.69 -281.79
rradius 48.3075
rwrist 5.7452
rhand 34.6385 -24.3427
rfingers 7.12502
rthumb 57.8218 -400.223
lclavicle 2.79292e-014 2.82274e-014
lhumerus -41.5144 -26.8386 92.2683
lradius 91.0984
lwrist -5.94824
lhand -4.97413 26.5701
lfingers 7.12502
lthumb 20.8183 55.4732
rfemur -21.2159 -8.67611 30.8186
rtibia 37.5795
rfoot -18.945 1.62147
rtoes -4.84421
lfemur -52.3207 4.95918 -14.1865
ltibia 61.2457
lfoot 17.2943 -6.42272
ltoes 33.9147
909
root 27.299 16.8699 5.88713 -172.284 -4.63454 -173.968
lowerback 5.50727 0.942145 6.37969
upperback 2.03334 1.39467 2.31848
thorax -0.88208 0.61269 -1.26775
lowerneck -8.00036 -2.96674 1.07673
upperneck 10.8822 -4.38034 0.790796
head 4.56835 -2.11954 -0.209425
rclavicle 1.13307e-014 2.06736e-014
rhumerus -232.002 132.308 -282.434
rradius 49.5634
rwrist 4.24532
rhand 36.2769 -24.6364
rfingers 7.12502
rthumb 59.2439 -399.187
lclavicle 1.13307e-014 2.06736e-014
lhumerus -41.9477 -26.7592 92.3201
lradius 88.5209
lwrist -4.38404
lhand -3.64911 27.5178
lfingers 7.12502
lthumb 22.0909 56.2759
rfemur -21.4623 -8.53017 30.4694
rtibia 37.3869
rfoot -18.3614 1.94227
rtoes -4.6431
lfemur -52.3116 4.82085 -14.265
ltibia 62.54
lfoot 18.2241 -6.47205
ltoes 34.357
910
root 27.3018 16.9006 5.97376 -172.275 -4.37342 -174.279
lowerback 5.50787 1.00983 6.13351
upperback 2.07221 1.47928 2.15596
thorax -0.839918 0.661463 -1.30293
lowerneck -8.03039 -2.96631 1.06536
upperneck 10.9882 -4.39402 0.859353
head 4.60786 -2.12312 -0.189357
rclavicle 2.98177e-015 5.1684e-015
rhumerus -232.41 129.938 -282.983
rradius 50.8477
rwrist 2.837
rhand 37.7864 -24.9242
rfingers 7.12502
rthumb 60.5362 -398.129
lclavicle 2.98177e-015 5.1684e-015
lhumerus -42.4203 -26.7737 92.4003
lradius 86.0607
lwrist -2.46918
lhand -2.55772 28.6179
lfingers 7.12502
lthumb 23.1384 57.2484
rfemur -21.6971 -8.36788 30.121
rtibia 37.1742
rfoot -17.7868 2.20411
rtoes -4.47143
lfemur -52.2577 4.66243 -14.3445
ltibia 63.8287
lfoot 19.1212 -6.52889
ltoes 34.7492
911
root 27.3043 16.9303 6.05978 -172.257 -4.14999 -174.563
lowerback 5.47809 1.05737 5.91923
upperback 2.1015 1.53621 2.00552
thorax -0.792035 0.695991 -1.34108
lowerneck -8.06845 -2.95294 1.0433
upperneck 11.1207 -4.39005 0.922519
head 4.65702 -2.11877 -0.168572
rclavicle 1.39149e-014 1.13307e-014
rhumerus -232.77 127.58 -283.432
rradius 52.1421
rwrist 1.58203
rhand 39.1496 -25.1314
rfingers 7.12502
rthumb 61.6865 -397.01
lclavicle 1.39149e-014 1.13307e-014
lhumerus -42.9365 -26.8656 92.5209
lradius 83.7027
lwrist -0.38844
lhand -1.76778 29.7817
lfingers 7.12502
lthumb 23.8961 58.3149
rfemur -21.9301 -8.20447 29.8088
rtibia 36.938
rfoot -17.2132 2.42108
rtoes -4.26114
lfemur -52.1723 4.48811 -14.3999
ltibia 65.1116
lfoot 19.9853 -6.59507
ltoes 35.0841
912
root 27.3064 16.9588 6.14544 -172.238 -3.95818 -174.812
lowerback 5.43811 1.08655 5.74612
upperback 2.11663 1.57029 1.86867
thorax -0.753757 0.718259 -1.38661
lowerneck -8.11762 -2.9272 0.999268
upperneck 11.2861 -4.36948 0.990819
head 4.71879 -2.10689 -0.142185
rclavicle -1.55549e-014 -3.43897e-014
rhumerus -233.081 125.237 -283.781
rradius 53.4333
rwrist 0.481923
rhand 40.3174 -25.2227
rfingers 7.12502
rthumb 62.6577 -395.873
lclavicle -1.55549e-014 -3.43897e-014
lhumerus -43.5258 -27.019 92.6944
lradius 81.4201
lwrist 1.56973
lhand -1.31471 30.7929
lfingers 7.12502
lthumb 24.3305 59.2686
rfemur -22.1553 -8.02887 29.5401
rtibia 36.6802
rfoot -16.6458 2.573
rtoes -4.1324
lfemur -52.0457 4.30566 -14.4243
ltibia 66.3853
lfoot 20.8194 -6.64942
ltoes 35.3882
913
root 27.3077 16.9858 6.23095 -172.212 -3.78482 -175.018
lowerback 5.38543 1.10012 5.62206
upperback 2.12014 1.58504 1.74718
thorax -0.720528 0.73019 -1.4423
lowerneck -8.19112 -2.88608 0.934555
upperneck 11.4854 -4.32802 1.06185
head 4.7956 -2.08526 -0.111026
rclavicle 6.4605e-016 -1.25234e-014
rhumerus -233.322 122.896 -284.025
rradius 54.7146
rwrist -0.510845
rhand 41.279 -25.2501
rfingers 7.12502
rthumb 63.4466 -394.818
lclavicle 6.4605e-016 -1.25234e-014
lhumerus -44.1763 -27.2032 92.9136
lradius 79.1842
lwrist 3.15779
lhand -1.16825 31.5184
lfingers 7.12502
lthumb 24.4709 59.9752
rfemur -22.3806 -7.83702 29.3211
rtibia 36.4053
rfoot -16.0626 2.69128
rtoes -3.92881
lfemur -51.8784 4.12964 -14.4158
ltibia 67.6426
lfoot 21.6242 -6.6936
ltoes 35.6271
914
root 27.3079 17.0112 6.3163 -172.18 -3.62219 -175.185
lowerback 5.32048 1.10003 5.54295
upperback 2.11412 1.58292 1.63846
thorax -0.690309 0.733225 -1.50874
lowerneck -8.27604 -2.83407 0.877881
upperneck 11.6926 -4.27084 1.1129
head 4.87617 -2.0567 -0.0864267
rclavicle -1.60022e-014 -3.55825e-014
rhumerus -233.469 120.552 -284.144
rradius 55.9765
rwrist -1.42432
rhand 42.0524 -25.2367
rfingers 7.12502
rthumb 64.0731 -393.885
lclavicle -1.60022e-014 -3.55825e-014
lhumerus -44.8805 -27.3914 93.1721
lradius 76.9558
lwrist 4.16383
lhand -1.17252 31.8843
lfingers 7.12502
lthumb 24.4668 60.3417
rfemur -22.6061 -7.63299 29.1431
rtibia 36.1189
rfoot -15.4879 2.78825
rtoes -3.70889
lfemur -51.6647 3.96557 -14.382
ltibia 68.8739
lfoot 22.4086 -6.71463
ltoes 35.8225
915
root 27.3068 17.0355 6.40102 -172.136 -3.46002 -175.352
lowerback 5.24004 1.08884 5.47427
upperback 2.09647 1.56662 1.52987
thorax -0.664109 0.729142 -1.57988
lowerneck -8.37638 -2.77323 0.815167
upperneck 11.9134 -4.20104 1.15875
head 4.96354 -2.02244 -0.0618574
rclavicle -1.90833e-014 2.36554e-014
rhumerus -233.499 118.215 -284.124
rradius 57.2148
rwrist -2.29237
rhand 42.7081 -25.2168
rfingers 7.12502
rthumb 64.5985 -393.048
lclavicle -1.90833e-014 2.36554e-014
lhumerus -45.6429 -27.5653 93.4631
lradius 74.7189
lwrist 4.46798
lhand -1.26886 31.8273
lfingers 7.12502
lthumb 24.3745 60.2971
rfemur -22.8396 -7.43941 28.9626
rtibia 35.8292
rfoot -14.9166 2.89588
rtoes -3.45165
lfemur -51.3924 3.81306 -14.3689
ltibia 70.0619
lfoot 23.1894 -6.69913
ltoes 35.9984
916
root 27.3043 17.0584 6.48499 -172.083 -3.28154 -175.51
lowerback 5.1532 1.07485 5.42551
upperback 2.06654 1.5481 1.42125
thorax -0.646575 0.723731 -1.66206
lowerneck -8.47331 -2.7095 0.781442
upperneck 12.1261 -4.12591 1.16874
head 5.04646 -1.98666 -0.0523335
rclavicle 1.38155e-014 7.35503e-015
rhumerus -233.375 115.905 -283.924
rradius 58.4239
rwrist -3.12845
rhand 43.2841 -25.2159
rfingers 7.12502
rthumb 65.0552 -392.301
lclavicle 1.38155e-014 7.35503e-015
lhumerus -46.4641 -27.7176 93.7784
lradius 72.4726
lwrist 4.06256
lhand -1.39337 31.3574
lfingers 7.12502
lthumb 24.2551 59.8432
rfemur -23.0338 -7.23797 28.7856
rtibia 35.438
rfoot -14.2927 3.02231
rtoes -3.18359
lfemur -51.0409 3.69132 -14.3693
ltibia 71.1513
lfoot 24.0101 -6.64825
ltoes 36.1633
